<svg xmlns="http://www.w3.org/2000/svg" viewBox="0 0 1400 880" width="1400" height="880" role="img" aria-label="Design System">
  <defs>
    <linearGradient id="g" x1="0" y1="0" x2="1" y2="1">
      <stop offset="0" stop-color="#8FA3FF"/>
      <stop offset="1" stop-color="#4B58C7"/>
    </linearGradient>
    <filter id="soft"><feGaussianBlur stdDeviation="28"/></filter>
  </defs>
  <rect width="1400" height="880" fill="url(#g)"/>
  <g filter="url(#soft)"><circle cx="597" cy="129" r="74" fill="#fff" opacity="0.062"/><rect x="941" y="541" width="83.2" height="26" rx="13" fill="#fff" opacity="0.076"/><circle cx="1175" cy="630" r="131" fill="#fff" opacity="0.139"/><rect x="118" y="556" width="171.20000000000002" height="53.5" rx="26.75" fill="#fff" opacity="0.166"/><circle cx="1143" cy="578" r="92" fill="#fff" opacity="0.150"/><rect x="641" y="516" width="241.60000000000002" height="75.5" rx="37.75" fill="#fff" opacity="0.126"/><circle cx="1244" cy="107" r="295" fill="#fff" opacity="0.098"/></g>
  <g><line x1="0" y1="0" x2="0" y2="880" stroke="#080C24" stroke-width="1" opacity="0.08"/><line x1="64" y1="0" x2="64" y2="880" stroke="#080C24" stroke-width="1" opacity="0.08"/><line x1="128" y1="0" x2="128" y2="880" stroke="#080C24" stroke-width="1" opacity="0.08"/><line x1="192" y1="0" x2="192" y2="880" stroke="#080C24" stroke-width="1" opacity="0.08"/><line x1="256" y1="0" x2="256" y2="880" stroke="#080C24" stroke-width="1" opacity="0.08"/><line x1="320" y1="0" x2="320" y2="880" stroke="#080C24" stroke-width="1" opacity="0.08"/><line x1="384" y1="0" x2="384" y2="880" stroke="#080C24" stroke-width="1" opacity="0.08"/><line x1="448" y1="0" x2="448" y2="880" stroke="#080C24" stroke-width="1" opacity="0.08"/><line x1="512" y1="0" x2="512" y2="880" stroke="#080C24" stroke-width="1" opacity="0.08"/><line x1="576" y1="0" x2="576" y2="880" stroke="#080C24" stroke-width="1" opacity="0.08"/><line x1="640" y1="0" x2="640" y2="880" stroke="#080C24" stroke-width="1" opacity="0.08"/><line x1="704" y1="0" x2="704" y2="880" stroke="#080C24" stroke-width="1" opacity="0.08"/><line x1="768" y1="0" x2="768" y2="880" stroke="#080C24" stroke-width="1" opacity="0.08"/><line x1="832" y1="0" x2="832" y2="880" stroke="#080C24" stroke-width="1" opacity="0.08"/><line x1="896" y1="0" x2="896" y2="880" stroke="#080C24" stroke-width="1" opacity="0.08"/><line x1="960" y1="0" x2="960" y2="880" stroke="#080C24" stroke-width="1" opacity="0.08"/><line x1="1024" y1="0" x2="1024" y2="880" stroke="#080C24" stroke-width="1" opacity="0.08"/><line x1="1088" y1="0" x2="1088" y2="880" stroke="#080C24" stroke-width="1" opacity="0.08"/><line x1="1152" y1="0" x2="1152" y2="880" stroke="#080C24" stroke-width="1" opacity="0.08"/><line x1="1216" y1="0" x2="1216" y2="880" stroke="#080C24" stroke-width="1" opacity="0.08"/><line x1="1280" y1="0" x2="1280" y2="880" stroke="#080C24" stroke-width="1" opacity="0.08"/><line x1="1344" y1="0" x2="1344" y2="880" stroke="#080C24" stroke-width="1" opacity="0.08"/></g>
  <text x="700" y="428" text-anchor="middle"
        font-family="Bricolage Grotesque, Helvetica, Arial, sans-serif" font-size="98"
        font-weight="700" fill="#080C24" opacity="0.82">Design System</text>
  <text x="700" y="520" text-anchor="middle"
        font-family="ui-monospace, Menlo, monospace" font-size="37"
        letter-spacing="3" fill="#080C24" opacity="0.55">LEDGER &amp; CO</text>
</svg>
