<svg xmlns="http://www.w3.org/2000/svg" viewBox="0 0 1400 880" width="1400" height="880" role="img" aria-label="Case Study">
  <defs>
    <linearGradient id="g" x1="0" y1="0" x2="1" y2="1">
      <stop offset="0" stop-color="#FF9DB0"/>
      <stop offset="1" stop-color="#D6456B"/>
    </linearGradient>
    <filter id="soft"><feGaussianBlur stdDeviation="28"/></filter>
  </defs>
  <rect width="1400" height="880" fill="url(#g)"/>
  <g filter="url(#soft)"><circle cx="355" cy="26" r="107" fill="#fff" opacity="0.121"/><rect x="304" y="598" width="422.40000000000003" height="132" rx="66" fill="#fff" opacity="0.152"/><circle cx="1007" cy="119" r="96" fill="#fff" opacity="0.127"/><rect x="915" y="821" width="164.8" height="51.5" rx="25.75" fill="#fff" opacity="0.160"/><circle cx="542" cy="15" r="299" fill="#fff" opacity="0.167"/><rect x="1157" y="336" width="163.20000000000002" height="51" rx="25.5" fill="#fff" opacity="0.148"/><circle cx="200" cy="495" r="286" fill="#fff" opacity="0.100"/></g>
  <g><line x1="0" y1="0" x2="0" y2="880" stroke="#2A0812" stroke-width="1" opacity="0.08"/><line x1="64" y1="0" x2="64" y2="880" stroke="#2A0812" stroke-width="1" opacity="0.08"/><line x1="128" y1="0" x2="128" y2="880" stroke="#2A0812" stroke-width="1" opacity="0.08"/><line x1="192" y1="0" x2="192" y2="880" stroke="#2A0812" stroke-width="1" opacity="0.08"/><line x1="256" y1="0" x2="256" y2="880" stroke="#2A0812" stroke-width="1" opacity="0.08"/><line x1="320" y1="0" x2="320" y2="880" stroke="#2A0812" stroke-width="1" opacity="0.08"/><line x1="384" y1="0" x2="384" y2="880" stroke="#2A0812" stroke-width="1" opacity="0.08"/><line x1="448" y1="0" x2="448" y2="880" stroke="#2A0812" stroke-width="1" opacity="0.08"/><line x1="512" y1="0" x2="512" y2="880" stroke="#2A0812" stroke-width="1" opacity="0.08"/><line x1="576" y1="0" x2="576" y2="880" stroke="#2A0812" stroke-width="1" opacity="0.08"/><line x1="640" y1="0" x2="640" y2="880" stroke="#2A0812" stroke-width="1" opacity="0.08"/><line x1="704" y1="0" x2="704" y2="880" stroke="#2A0812" stroke-width="1" opacity="0.08"/><line x1="768" y1="0" x2="768" y2="880" stroke="#2A0812" stroke-width="1" opacity="0.08"/><line x1="832" y1="0" x2="832" y2="880" stroke="#2A0812" stroke-width="1" opacity="0.08"/><line x1="896" y1="0" x2="896" y2="880" stroke="#2A0812" stroke-width="1" opacity="0.08"/><line x1="960" y1="0" x2="960" y2="880" stroke="#2A0812" stroke-width="1" opacity="0.08"/><line x1="1024" y1="0" x2="1024" y2="880" stroke="#2A0812" stroke-width="1" opacity="0.08"/><line x1="1088" y1="0" x2="1088" y2="880" stroke="#2A0812" stroke-width="1" opacity="0.08"/><line x1="1152" y1="0" x2="1152" y2="880" stroke="#2A0812" stroke-width="1" opacity="0.08"/><line x1="1216" y1="0" x2="1216" y2="880" stroke="#2A0812" stroke-width="1" opacity="0.08"/><line x1="1280" y1="0" x2="1280" y2="880" stroke="#2A0812" stroke-width="1" opacity="0.08"/><line x1="1344" y1="0" x2="1344" y2="880" stroke="#2A0812" stroke-width="1" opacity="0.08"/></g>
  <text x="700" y="428" text-anchor="middle"
        font-family="Bricolage Grotesque, Helvetica, Arial, sans-serif" font-size="98"
        font-weight="700" fill="#2A0812" opacity="0.82">Case Study</text>
  <text x="700" y="520" text-anchor="middle"
        font-family="ui-monospace, Menlo, monospace" font-size="37"
        letter-spacing="3" fill="#2A0812" opacity="0.55">MERIDIAN</text>
</svg>
